<?xml version="1.0" encoding="utf-8"?>
<!-- Generator: Adobe Illustrator 25.2.1, SVG Export Plug-In . SVG Version: 6.00 Build 0)  -->
<svg version="1.1" id="Layer_1" xmlns="http://www.w3.org/2000/svg" xmlns:xlink="http://www.w3.org/1999/xlink" x="0px" y="0px"
	 viewBox="0 0 99.2 68.6" style="enable-background:new 0 0 99.2 68.6;" xml:space="preserve">
<style type="text/css">
	.st0{fill:#FFFFFF;}
	.st1{fill:#F99D33;}
</style>
<g>
	<path class="st0" d="M5.2,43.8c0-0.5-0.4-0.7-0.8-0.7h-1v11.4h1c0.4,0,0.8-0.2,0.8-0.8V43.8z M4.8,41.6c1,0,1.8,0.8,1.8,1.8v10.7
		c0,1-0.8,1.8-1.8,1.8H2V41.6H4.8z"/>
	<path class="st0" d="M22.8,54.8c0.4,0,0.8-0.3,0.8-0.8V43.6c0-0.4-0.3-0.8-0.8-0.8h-0.2c-0.4,0-0.8,0.4-0.8,0.8V54
		c0,0.4,0.3,0.8,0.8,0.8H22.8z M23.3,41.5c1,0,1.8,0.8,1.8,1.8v10.9c0,1-0.8,1.8-1.8,1.8h-1.1c-1,0-1.8-0.8-1.8-1.8V43.3
		c0-1,0.8-1.8,1.8-1.8H23.3z"/>
	<path class="st0" d="M43.4,54.2c0,1-0.8,1.7-1.8,1.7v0h-1.1c-1,0-1.8-0.8-1.8-1.8V42c0-0.2,0.2-0.4,0.4-0.4h1V54
		c0,0.4,0.3,0.8,0.8,0.8h0.2c0.4,0,0.8-0.3,0.8-0.8V41.6h1.5V54.2z"/>
	<path class="st0" d="M61.9,55.9h-1.6L59,46.1l-1.3,9.8h-1.6l2.2-14.3h0.8c0.6,0,0.7,0.4,0.8,0.8L61.9,55.9z"/>
	<path class="st0" d="M79.9,54.5c-0.2,0.4-0.4,0.9-0.5,1.1c-0.1,0.2-0.3,0.4-0.8,0.4h-3.5V41.6h1c0.2,0,0.4,0.2,0.4,0.4v12.4H79.9z"
		/>
	<path class="st0" d="M96.8,55.9h-1.6l-1.3-9.8l-1.3,9.8H91l2.2-14.3h0.8c0.6,0,0.7,0.4,0.8,0.8L96.8,55.9z"/>
</g>
<polygon class="st1" points="58.8,2.3 67.1,10.6 75.4,2.3 "/>
<rect x="51" y="2.3" class="st1" width="4.3" height="32.3"/>
<polygon class="st1" points="67.1,14.2 58.8,6 58.8,34.7 75.4,34.7 75.4,5.9 "/>
<rect x="79" y="2.3" class="st1" width="4.3" height="32.3"/>
<rect x="15.5" y="2.3" class="st1" width="7.8" height="32.3"/>
<polygon class="st1" points="34.1,2.3 47.8,16 47.8,2.3 "/>
<polygon class="st1" points="47.8,34.6 47.8,21.3 34.5,34.6 "/>
<rect x="25.5" y="2.3" class="st1" width="2.5" height="32.3"/>
<polygon class="st1" points="31.6,4.9 31.6,32.4 45.4,18.7 "/>
<g>
	<path class="st0" d="M18.6,61.4c0-0.6-0.2-1.1-0.9-1.1c-0.9,0-1,1-1,2.3c0,1.3,0.1,2.3,1,2.3c0.9,0,1-1.1,1-1.8h-1.1v-0.5h1.7v2.8
		h-0.5v-0.7h0c-0.1,0.5-0.6,0.8-1.2,0.8c-1.4,0-1.7-1.4-1.7-2.8c0-1.4,0.3-2.8,1.7-2.8c1.6,0,1.6,1.3,1.6,1.6H18.6z"/>
	<path class="st0" d="M24,62.4h0.7c0.4,0,1.1,0,1.1-1c0-0.5-0.4-0.9-1-0.9H24V62.4z M23.4,59.9h1.8c0.8,0,1.4,0.5,1.4,1.4
		c0,0.6-0.2,1.2-0.8,1.4v0c0.5,0.1,0.7,0.4,0.8,0.9l0,0.9c0,0.6,0.1,0.8,0.3,0.8H26c-0.1-0.1-0.2-0.5-0.2-0.8l0-0.8
		c-0.1-0.7-0.5-0.8-0.8-0.8H24v2.4h-0.7V59.9z"/>
</g>
<path class="st0" d="M32,60.7L32,60.7l0.7,2.6h-1.5L32,60.7z M31.6,59.9l-1.6,5.4h0.7l0.4-1.5h1.7l0.4,1.5H34l-1.5-5.4H31.6z"/>
<polygon class="st0" points="40.3,59.9 40.3,64.4 40.3,64.4 38.5,59.9 37.6,59.9 37.6,65.3 38.3,65.3 38.3,61 38.3,61 40,65.3 
	41,65.3 41,59.9 "/>
<g>
	<path class="st0" d="M45.8,64.8h0.7c1.2,0,1.3-1.2,1.3-2.2c0-1-0.1-2.2-1.3-2.2h-0.7V64.8z M45.2,59.9h1.4c1.7,0,1.9,1.2,1.9,2.7
		c0,1.4-0.3,2.7-1.8,2.7h-1.5V59.9z"/>
</g>
<polygon class="st0" points="61,59.9 59.9,64.2 59.9,64.2 58.8,59.9 57.7,59.9 57.7,65.3 58.4,65.3 58.4,60.6 58.4,60.6 59.6,65.3 
	60.2,65.3 61.4,60.6 61.5,60.6 61.5,65.3 62.1,65.3 62.1,59.9 "/>
<path class="st0" d="M67.8,60.7L67.8,60.7l0.7,2.6H67L67.8,60.7z M67.4,59.9l-1.6,5.4h0.7l0.4-1.5h1.7l0.4,1.5h0.7l-1.5-5.4H67.4z"
	/>
<polygon class="st0" points="73.4,59.9 73.4,65.3 76.2,65.3 76.2,64.7 74,64.7 74,59.9 "/>
<polygon class="st0" points="80,59.9 80,65.3 82.9,65.3 82.9,64.7 80.7,64.7 80.7,59.9 "/>
<g>
	<path class="st0" d="M69.2,18.5c0-1.1-0.9-2.1-2.1-2.1c-1.1,0-2.1,0.9-2.1,2.1c0,1.1,0.9,2.1,2.1,2.1
		C68.3,20.6,69.2,19.6,69.2,18.5"/>
</g>
<polygon class="st0" points="69.5,2.3 67.1,4.7 64.7,2.3 61.1,2.3 67.1,8.4 73.2,2.3 "/>
<polygon class="st0" points="64.7,34.7 67.1,32.2 69.5,34.7 73.2,34.7 67.1,28.6 61.1,34.7 "/>
<polygon class="st0" points="33.7,10.2 42.1,18.5 33.7,26.9 "/>
</svg>
