<?xml version="1.0" encoding="utf-8"?>
<!-- Generator: Adobe Illustrator 25.2.1, SVG Export Plug-In . SVG Version: 6.00 Build 0)  -->
<svg version="1.1" id="Layer_1" xmlns="http://www.w3.org/2000/svg" xmlns:xlink="http://www.w3.org/1999/xlink" x="0px" y="0px"
	 viewBox="0 0 1516.9 51.6" style="enable-background:new 0 0 1516.9 51.6;" xml:space="preserve">
<style type="text/css">
	.st0{fill:#F99D36;}
</style>
<g>
	<path class="st0" d="M353.6,44.6l-3.2,3.2h6.4L353.6,44.6z M258.8,44.6l-3.2,3.2h6.4L258.8,44.6z M164,44.6l-3.2,3.2h6.4L164,44.6z
		 M69.2,44.6L66,47.8h6.4L69.2,44.6z M0,47.8h10.4V4.4H0V47.8z M13.4,47.8h3.4V4.4h-3.4V47.8z M24.4,15l11.2,11.2L24.4,37.4V15z
		 M40,26.4L21.6,7.9v36.9L40,26.4z M24.9,4.4l18.4,18.4V4.4H24.9z M25.5,47.8h17.9V29.9L25.5,47.8z M47.5,47.8h5.7V4.5h-5.7V47.8z
		 M69.2,7.7l3.2-3.2h-6.5L69.2,7.7z M69.2,15.6L80.2,4.5h-2.9l-8.1,8.1l-8.1-8.1h-3L69.2,15.6z M72,26.1c0,1.5-1.2,2.8-2.8,2.8
		c-1.5,0-2.8-1.2-2.8-2.8c0-1.5,1.2-2.8,2.8-2.8C70.7,23.4,72,24.6,72,26.1 M77.2,47.8h3V9.3L69.2,20.4L58.1,9.3v38.5h3l8.1-8.1
		L77.2,47.8z M85.1,47.8h5.8V4.5h-5.8V47.8z M94.8,47.8h10.4V4.4H94.8V47.8z M108.1,47.8h3.4V4.4h-3.4V47.8z M119.2,15l11.2,11.2
		l-11.2,11.2V15z M134.8,26.4L116.3,7.9v36.9L134.8,26.4z M119.7,4.4l18.4,18.4V4.4H119.7z M120.2,47.8h17.9V29.9L120.2,47.8z
		 M142.3,47.8h5.7V4.5h-5.7V47.8z M164,7.7l3.2-3.2h-6.5L164,7.7z M163.9,15.6L175,4.5h-2.9l-8.1,8.1l-8.1-8.1h-3L163.9,15.6z
		 M166.7,26.1c0,1.5-1.2,2.8-2.8,2.8c-1.5,0-2.8-1.2-2.8-2.8c0-1.5,1.2-2.8,2.8-2.8C165.5,23.4,166.7,24.6,166.7,26.1 M172,47.8h3
		V9.3l-11.1,11.1L152.8,9.3v38.5h3l8.1-8.1L172,47.8z M179.8,47.8h5.8V4.5h-5.8V47.8z M189.6,47.8H200V4.4h-10.4V47.8z M203,47.8
		h3.4V4.4H203V47.8z M214,15l11.2,11.2L214,37.4V15z M229.6,26.4L211.2,7.9v36.9L229.6,26.4z M214.5,4.4l18.4,18.4V4.4H214.5z
		 M215.1,47.8h17.9V29.9L215.1,47.8z M237.1,47.8h5.7V4.5h-5.7V47.8z M258.8,7.7l3.2-3.2h-6.5L258.8,7.7z M258.8,15.6l11.1-11.1
		h-2.9l-8.1,8.1l-8.1-8.1h-3L258.8,15.6z M261.6,26.1c0,1.5-1.2,2.8-2.8,2.8c-1.5,0-2.8-1.2-2.8-2.8c0-1.5,1.2-2.8,2.8-2.8
		C260.3,23.4,261.6,24.6,261.6,26.1 M266.9,47.8h3V9.3l-11.1,11.1L247.7,9.3v38.5h3l8.1-8.1L266.9,47.8z M274.7,47.8h5.8V4.5h-5.8
		V47.8z M284.4,47.8h10.4V4.4h-10.4V47.8z M297.7,47.8h3.4V4.4h-3.4V47.8z M308.8,15L320,26.2l-11.2,11.2V15z M324.4,26.4L306,7.9
		v36.9L324.4,26.4z M309.3,4.4l18.4,18.4V4.4H309.3z M309.9,47.8h17.9V29.9L309.9,47.8z M331.9,47.8h5.7V4.5h-5.7V47.8z M353.6,7.7
		l3.2-3.2h-6.5L353.6,7.7z M353.5,15.6l11.1-11.1h-2.9l-8.1,8.1l-8.1-8.1h-3L353.5,15.6z M356.3,26.1c0,1.5-1.2,2.8-2.8,2.8
		c-1.5,0-2.8-1.2-2.8-2.8c0-1.5,1.2-2.8,2.8-2.8C355.1,23.4,356.3,24.6,356.3,26.1 M361.6,47.8h3V9.3l-11.1,11.1L342.4,9.3v38.5h3
		l8.1-8.1L361.6,47.8z M375.2,4.5h-5.8v43.3h5.8V4.5z"/>
	<path class="st0" d="M734.1,44.6l-3.2,3.2h6.4L734.1,44.6z M639.4,44.6l-3.2,3.2h6.4L639.4,44.6z M544.5,44.6l-3.2,3.2h6.4
		L544.5,44.6z M449.8,44.6l-3.2,3.2h6.4L449.8,44.6z M380.6,47.8H391V4.4h-10.4V47.8z M393.9,47.8h3.4V4.4h-3.4V47.8z M405,15
		l11.2,11.2L405,37.4V15z M420.6,26.4L402.1,7.9v36.9L420.6,26.4z M405.5,4.4l18.4,18.4V4.4H405.5z M406,47.8h17.9V29.9L406,47.8z
		 M428.1,47.8h5.7V4.5h-5.7V47.8z M449.8,7.7l3.2-3.2h-6.5L449.8,7.7z M449.7,15.6l11.1-11.1h-2.9l-8.1,8.1l-8.1-8.1h-3L449.7,15.6z
		 M452.5,26.1c0,1.5-1.2,2.8-2.8,2.8c-1.5,0-2.8-1.2-2.8-2.8c0-1.5,1.2-2.8,2.8-2.8C451.3,23.4,452.5,24.6,452.5,26.1 M457.8,47.8h3
		V9.3l-11.1,11.1L438.6,9.3v38.5h3l8.1-8.1L457.8,47.8z M465.7,47.8h5.8V4.5h-5.8V47.8z M475.3,47.8h10.4V4.4h-10.4V47.8z
		 M488.7,47.8h3.4V4.4h-3.4V47.8z M499.8,15l11.2,11.2l-11.2,11.2V15z M515.4,26.4L496.9,7.9v36.9L515.4,26.4z M500.3,4.4l18.4,18.4
		V4.4H500.3z M500.8,47.8h17.9V29.9L500.8,47.8z M522.9,47.8h5.7V4.5h-5.7V47.8z M544.5,7.7l3.2-3.2h-6.5L544.5,7.7z M544.5,15.6
		l11.1-11.1h-2.9l-8.1,8.1l-8.1-8.1h-3L544.5,15.6z M547.3,26.1c0,1.5-1.2,2.8-2.8,2.8c-1.5,0-2.8-1.2-2.8-2.8
		c0-1.5,1.2-2.8,2.8-2.8C546.1,23.4,547.3,24.6,547.3,26.1 M552.6,47.8h3V9.3l-11.1,11.1L533.4,9.3v38.5h3l8.1-8.1L552.6,47.8z
		 M560.4,47.8h5.8V4.5h-5.8V47.8z M570.2,47.8h10.4V4.4h-10.4V47.8z M583.5,47.8h3.4V4.4h-3.4V47.8z M594.6,15l11.2,11.2l-11.2,11.2
		V15z M610.2,26.4L591.8,7.9v36.9L610.2,26.4z M595.1,4.4l18.4,18.4V4.4H595.1z M595.7,47.8h17.9V29.9L595.7,47.8z M617.7,47.8h5.7
		V4.5h-5.7V47.8z M639.4,7.7l3.2-3.2h-6.5L639.4,7.7z M639.3,15.6l11.1-11.1h-2.9l-8.1,8.1l-8.1-8.1h-3L639.3,15.6z M642.2,26.1
		c0,1.5-1.2,2.8-2.8,2.8c-1.5,0-2.8-1.2-2.8-2.8c0-1.5,1.2-2.8,2.8-2.8C640.9,23.4,642.2,24.6,642.2,26.1 M647.4,47.8h3V9.3
		l-11.1,11.1L628.3,9.3v38.5h3l8.1-8.1L647.4,47.8z M655.3,47.8h5.8V4.5h-5.8V47.8z M664.9,47.8h10.4V4.4h-10.4V47.8z M678.3,47.8
		h3.4V4.4h-3.4V47.8z M689.4,15l11.2,11.2l-11.2,11.2V15z M705,26.4L686.5,7.9v36.9L705,26.4z M689.9,4.4l18.4,18.4V4.4H689.9z
		 M690.4,47.8h17.9V29.9L690.4,47.8z M712.5,47.8h5.7V4.5h-5.7V47.8z M734.1,7.7l3.2-3.2h-6.5L734.1,7.7z M734.1,15.6l11.1-11.1
		h-2.9l-8.1,8.1L726,4.5h-3L734.1,15.6z M736.9,26.1c0,1.5-1.2,2.8-2.8,2.8c-1.5,0-2.8-1.2-2.8-2.8c0-1.5,1.2-2.8,2.8-2.8
		C735.7,23.4,736.9,24.6,736.9,26.1 M742.2,47.8h3V9.3l-11.1,11.1L723,9.3v38.5h3l8.1-8.1L742.2,47.8z M755.8,4.5H750v43.3h5.8V4.5z
		"/>
	<path class="st0" d="M1114.7,44.6l-3.2,3.2h6.4L1114.7,44.6z M1020,44.6l-3.2,3.2h6.4L1020,44.6z M925.1,44.6l-3.2,3.2h6.4
		L925.1,44.6z M830.3,44.6l-3.2,3.2h6.4L830.3,44.6z M761.1,47.8h10.4V4.4h-10.4V47.8z M774.5,47.8h3.4V4.4h-3.4V47.8z M785.6,15
		l11.2,11.2l-11.2,11.2V15z M801.2,26.4L782.7,7.9v36.9L801.2,26.4z M786.1,4.4l18.4,18.4V4.4H786.1z M786.6,47.8h17.9V29.9
		L786.6,47.8z M808.7,47.8h5.7V4.5h-5.7V47.8z M830.3,7.7l3.2-3.2h-6.5L830.3,7.7z M830.3,15.6l11.1-11.1h-2.9l-8.1,8.1l-8.1-8.1h-3
		L830.3,15.6z M833.1,26.1c0,1.5-1.2,2.8-2.8,2.8c-1.5,0-2.8-1.2-2.8-2.8c0-1.5,1.2-2.8,2.8-2.8C831.9,23.4,833.1,24.6,833.1,26.1
		 M838.4,47.8h3V9.3l-11.1,11.1L819.2,9.3v38.5h3l8.1-8.1L838.4,47.8z M846.2,47.8h5.8V4.5h-5.8V47.8z M855.9,47.8h10.4V4.4h-10.4
		V47.8z M869.3,47.8h3.4V4.4h-3.4V47.8z M880.3,15l11.2,11.2l-11.2,11.2V15z M895.9,26.4L877.5,7.9v36.9L895.9,26.4z M880.8,4.4
		l18.4,18.4V4.4H880.8z M881.4,47.8h17.9V29.9L881.4,47.8z M903.4,47.8h5.7V4.5h-5.7V47.8z M925.1,7.7l3.2-3.2h-6.5L925.1,7.7z
		 M925.1,15.6l11.1-11.1h-2.9l-8.1,8.1L917,4.5h-3L925.1,15.6z M927.9,26.1c0,1.5-1.2,2.8-2.8,2.8c-1.5,0-2.8-1.2-2.8-2.8
		c0-1.5,1.2-2.8,2.8-2.8C926.6,23.4,927.9,24.6,927.9,26.1 M933.1,47.8h3V9.3l-11.1,11.1L914,9.3v38.5h3l8.1-8.1L933.1,47.8z
		 M941,47.8h5.8V4.5H941V47.8z M950.8,47.8h10.4V4.4h-10.4V47.8z M964.1,47.8h3.4V4.4h-3.4V47.8z M975.2,15l11.2,11.2l-11.2,11.2V15
		z M990.8,26.4L972.3,7.9v36.9L990.8,26.4z M975.7,4.4l18.4,18.4V4.4H975.7z M976.2,47.8h17.9V29.9L976.2,47.8z M998.3,47.8h5.7V4.5
		h-5.7V47.8z M1019.9,7.7l3.2-3.2h-6.5L1019.9,7.7z M1019.9,15.6L1031,4.5h-2.9l-8.1,8.1l-8.1-8.1h-3L1019.9,15.6z M1022.7,26.1
		c0,1.5-1.2,2.8-2.8,2.8c-1.5,0-2.8-1.2-2.8-2.8c0-1.5,1.2-2.8,2.8-2.8C1021.5,23.4,1022.7,24.6,1022.7,26.1 M1028,47.8h3V9.3
		l-11.1,11.1l-11.1-11.1v38.5h3l8.1-8.1L1028,47.8z M1035.8,47.8h5.8V4.5h-5.8V47.8z M1045.5,47.8h10.4V4.4h-10.4V47.8z
		 M1058.9,47.8h3.4V4.4h-3.4V47.8z M1069.9,15l11.2,11.2l-11.2,11.2V15z M1085.5,26.4l-18.5-18.5v36.9L1085.5,26.4z M1070.5,4.4
		l18.4,18.4V4.4H1070.5z M1071,47.8h17.9V29.9L1071,47.8z M1093,47.8h5.7V4.5h-5.7V47.8z M1114.7,7.7l3.2-3.2h-6.5L1114.7,7.7z
		 M1114.7,15.6l11.1-11.1h-2.9l-8.1,8.1l-8.1-8.1h-3L1114.7,15.6z M1117.5,26.1c0,1.5-1.2,2.8-2.8,2.8c-1.5,0-2.8-1.2-2.8-2.8
		c0-1.5,1.2-2.8,2.8-2.8C1116.2,23.4,1117.5,24.6,1117.5,26.1 M1122.8,47.8h3V9.3l-11.1,11.1l-11.1-11.1v38.5h3l8.1-8.1L1122.8,47.8
		z M1136.4,4.5h-5.8v43.3h5.8V4.5z"/>
	<path class="st0" d="M1495.3,44.6l-3.2,3.2h6.4L1495.3,44.6z M1400.5,44.6l-3.2,3.2h6.4L1400.5,44.6z M1305.7,44.6l-3.2,3.2h6.4
		L1305.7,44.6z M1210.9,44.6l-3.2,3.2h6.4L1210.9,44.6z M1141.7,47.8h10.4V4.4h-10.4V47.8z M1155.1,47.8h3.4V4.4h-3.4V47.8z
		 M1166.1,15l11.2,11.2l-11.2,11.2V15z M1181.7,26.4l-18.5-18.5v36.9L1181.7,26.4z M1166.6,4.4l18.4,18.4V4.4H1166.6z M1167.2,47.8
		h17.9V29.9L1167.2,47.8z M1189.2,47.8h5.7V4.5h-5.7V47.8z M1210.9,7.7l3.2-3.2h-6.5L1210.9,7.7z M1210.9,15.6l11.1-11.1h-2.9
		l-8.1,8.1l-8.1-8.1h-3L1210.9,15.6z M1213.7,26.1c0,1.5-1.2,2.8-2.8,2.8s-2.8-1.2-2.8-2.8c0-1.5,1.2-2.8,2.8-2.8
		S1213.7,24.6,1213.7,26.1 M1219,47.8h3V9.3l-11.1,11.1l-11.1-11.1v38.5h3l8.1-8.1L1219,47.8z M1226.8,47.8h5.8V4.5h-5.8V47.8z
		 M1236.5,47.8h10.4V4.4h-10.4V47.8z M1249.8,47.8h3.4V4.4h-3.4V47.8z M1260.9,15l11.2,11.2l-11.2,11.2V15z M1276.5,26.4L1258,7.9
		v36.9L1276.5,26.4z M1261.4,4.4l18.4,18.4V4.4H1261.4z M1261.9,47.8h17.9V29.9L1261.9,47.8z M1284,47.8h5.7V4.5h-5.7V47.8z
		 M1305.7,7.7l3.2-3.2h-6.5L1305.7,7.7z M1305.6,15.6l11.1-11.1h-2.9l-8.1,8.1l-8.1-8.1h-3L1305.6,15.6z M1308.4,26.1
		c0,1.5-1.2,2.8-2.8,2.8s-2.8-1.2-2.8-2.8c0-1.5,1.2-2.8,2.8-2.8S1308.4,24.6,1308.4,26.1 M1313.7,47.8h3V9.3l-11.1,11.1l-11.1-11.1
		v38.5h3l8.1-8.1L1313.7,47.8z M1321.6,47.8h5.8V4.5h-5.8V47.8z M1331.3,47.8h10.4V4.4h-10.4V47.8z M1344.7,47.8h3.4V4.4h-3.4V47.8z
		 M1355.7,15l11.2,11.2l-11.2,11.2V15z M1371.4,26.4l-18.5-18.5v36.9L1371.4,26.4z M1356.3,4.4l18.4,18.4V4.4H1356.3z M1356.8,47.8
		h17.9V29.9L1356.8,47.8z M1378.9,47.8h5.7V4.5h-5.7V47.8z M1400.5,7.7l3.2-3.2h-6.5L1400.5,7.7z M1400.5,15.6l11.1-11.1h-2.9
		l-8.1,8.1l-8.1-8.1h-3L1400.5,15.6z M1403.3,26.1c0,1.5-1.2,2.8-2.8,2.8c-1.5,0-2.8-1.2-2.8-2.8c0-1.5,1.2-2.8,2.8-2.8
		C1402,23.4,1403.3,24.6,1403.3,26.1 M1408.6,47.8h3V9.3l-11.1,11.1l-11.1-11.1v38.5h3l8.1-8.1L1408.6,47.8z M1416.4,47.8h5.8V4.5
		h-5.8V47.8z M1426.1,47.8h10.4V4.4h-10.4V47.8z M1439.5,47.8h3.4V4.4h-3.4V47.8z M1450.5,15l11.2,11.2l-11.2,11.2V15z M1466.1,26.4
		l-18.5-18.5v36.9L1466.1,26.4z M1451,4.4l18.4,18.4V4.4H1451z M1451.6,47.8h17.9V29.9L1451.6,47.8z M1473.6,47.8h5.7V4.5h-5.7V47.8
		z M1495.3,7.7l3.2-3.2h-6.5L1495.3,7.7z M1495.2,15.6l11.1-11.1h-2.9l-8.1,8.1l-8.1-8.1h-3L1495.2,15.6z M1498.1,26.1
		c0,1.5-1.2,2.8-2.8,2.8c-1.5,0-2.8-1.2-2.8-2.8c0-1.5,1.2-2.8,2.8-2.8C1496.8,23.4,1498.1,24.6,1498.1,26.1 M1503.3,47.8h3V9.3
		l-11.1,11.1l-11.1-11.1v38.5h3l8.1-8.1L1503.3,47.8z M1516.9,4.5h-5.8v43.3h5.8V4.5z"/>
</g>
</svg>
